<svg version="1.1" id="Layer_1" xmlns="http://www.w3.org/2000/svg" xmlns:xlink="http://www.w3.org/1999/xlink" x="0px" y="0px"
	 width="100%" viewBox="0 0 500 500" enable-background="new 0 0 500 500" xml:space="preserve">
<path fill="#27181D" opacity="1.000000" stroke="none" 
	d="
M328.000000,501.000000 
	C220.000031,501.000000 112.500031,500.979065 5.000180,501.095398 
	C1.576347,501.099091 0.903033,500.423889 0.905298,497.000031 
	C1.013776,333.000122 1.013757,169.000153 0.905338,5.000258 
	C0.903075,1.576984 1.575758,0.903020 4.999865,0.905285 
	C168.999756,1.013775 332.999725,1.013760 496.999634,0.905354 
	C500.422638,0.903091 501.096985,1.575408 501.094727,4.999745 
	C500.986206,168.999634 500.986237,332.999603 501.094604,496.999512 
	C501.096893,500.422272 500.426086,501.105530 497.000183,501.097168 
	C440.833710,500.960236 384.666809,501.000000 328.000000,501.000000 
z"/>
<path fill="#8F72D0" opacity="1.000000" stroke="none" 
	d="
M133.616486,268.383911 
	C131.140717,265.881897 129.030670,263.499146 126.666756,261.402618 
	C117.058327,252.881073 114.664436,242.346298 117.356827,230.121063 
	C119.432487,220.696259 121.269646,211.213028 122.954552,201.709991 
	C124.205841,194.652664 127.488419,188.977234 132.968903,184.398773 
	C152.021500,168.481995 170.994858,152.470337 190.054092,136.561584 
	C195.601456,131.931183 202.260101,129.168457 209.328888,129.208344 
	C234.651016,129.351166 259.972565,129.937332 285.288879,130.573410 
	C293.438171,130.778137 300.865356,133.850281 307.919464,137.793900 
	C316.637238,142.667618 325.334015,147.579300 334.072205,152.416138 
	C344.364716,158.113312 352.696381,165.910217 358.611786,176.049515 
	C365.909332,188.557800 372.895233,201.248566 379.961456,213.890854 
	C383.603638,220.407257 385.501526,227.496140 385.714386,234.904892 
	C386.015808,245.396362 385.909210,255.899185 386.022095,266.396667 
	C386.053528,269.318054 384.515442,271.441284 382.685608,273.420959 
	C372.845276,284.067444 363.028778,294.736542 353.110840,305.310455 
	C346.498199,312.360474 338.131836,315.644806 328.580109,315.978455 
	C323.418732,316.158752 318.241699,316.279633 313.085419,316.077942 
	C309.740692,315.947113 308.851288,317.161072 308.981781,320.384186 
	C309.494110,333.037659 309.811432,345.699677 310.119995,358.360535 
	C310.319000,366.525696 307.394196,371.004059 301.103760,372.489166 
	C295.208069,373.881073 290.266266,371.058624 286.798309,364.312256 
	C283.907074,358.687744 280.641724,353.219208 278.209717,347.402435 
	C272.764587,334.378967 263.821808,323.960205 254.500214,313.692474 
	C247.871078,306.390442 239.760727,303.122406 230.092316,303.215302 
	C223.759842,303.276123 217.409988,303.108856 211.099335,303.522705 
	C198.872864,304.324493 188.340012,300.641876 179.859772,291.886414 
	C174.709488,286.568909 169.212982,283.746338 161.469894,284.328461 
	C153.300598,284.942657 146.249603,281.380554 140.547974,275.385315 
	C138.366455,273.091400 136.095627,270.882446 133.616486,268.383911 
z"/>
<path fill="#28191F" opacity="1.000000" stroke="none" 
	d="
M350.629517,289.487427 
	C353.016205,291.155884 353.648010,292.344666 351.612335,294.793884 
	C344.202728,303.708557 334.986298,307.195465 323.364929,308.207489 
	C308.638885,309.489838 297.819061,305.366577 288.323822,293.951782 
	C279.843567,283.757141 269.543945,275.076630 260.058289,265.716675 
	C258.994354,264.666809 257.937683,263.596588 256.995026,262.440125 
	C255.877914,261.069641 255.445786,259.368652 256.068665,257.744141 
	C256.773285,255.906433 258.629059,256.614777 260.014099,256.562073 
	C263.174896,256.441742 266.349152,256.621094 269.505585,256.450745 
	C278.003906,255.992142 282.998230,251.142899 283.568176,242.616821 
	C283.845398,238.469757 283.752991,234.289566 283.650269,230.128738 
	C283.589417,227.664581 284.351532,226.455063 287.015839,226.479050 
	C294.799164,226.549149 300.365173,222.528107 305.389893,216.929184 
	C317.626404,203.294327 330.230103,189.989120 342.478424,176.364578 
	C345.161560,173.379990 346.760651,173.014618 348.991699,176.552963 
	C357.520294,190.078903 364.782410,204.319229 372.622803,218.232285 
	C374.716217,221.947144 371.520416,221.503067 369.533478,221.534256 
	C357.208496,221.727737 344.882172,221.835083 332.556274,221.971115 
	C331.390320,221.983994 330.218536,221.928192 329.059601,222.025299 
	C326.584229,222.232727 324.929443,223.466782 324.945892,226.093109 
	C324.962585,228.749634 326.723877,229.883698 329.155029,230.093399 
	C330.478790,230.207611 331.817902,230.163315 333.149994,230.158737 
	C346.142944,230.114075 359.140106,230.232834 372.126343,229.912064 
	C376.149170,229.812698 377.272614,231.163574 377.277069,234.932938 
	C377.288055,244.259048 377.553284,253.586472 377.842926,262.909454 
	C377.916016,265.260529 377.187012,267.024689 375.583984,268.704346 
	C371.099762,273.402863 366.616272,278.112976 362.375336,283.028076 
	C360.333344,285.394623 358.992615,285.662628 356.491791,283.471741 
	C346.345337,274.582916 335.987213,265.935669 325.706543,257.200104 
	C324.691132,256.337280 323.698090,255.445282 322.647919,254.626740 
	C320.493896,252.947815 318.201111,251.947357 316.103363,254.560776 
	C314.108459,257.046021 315.090057,259.130005 317.311218,261.001495 
	C322.660522,265.508636 327.945984,270.091461 333.261719,274.638428 
	C338.957306,279.510376 344.658051,284.376221 350.629517,289.487427 
z"/>
<path fill="#28191E" opacity="1.000000" stroke="none" 
	d="
M282.525879,299.472900 
	C287.881470,304.749084 292.925293,309.840576 298.119324,314.773926 
	C299.952911,316.515472 300.742096,318.390076 300.799347,320.903198 
	C301.083954,333.396118 301.519836,345.885529 301.863922,358.377228 
	C301.927551,360.687378 302.270569,363.354156 299.239685,364.121155 
	C296.232056,364.882263 295.237854,362.423035 294.171814,360.349945 
	C291.736267,355.613800 289.053619,350.978302 286.985443,346.084625 
	C280.654449,331.104340 270.895996,318.585663 259.735596,306.992645 
	C252.348007,299.318695 243.612534,294.793671 232.778442,294.849762 
	C226.113358,294.884247 219.421799,294.557922 212.789108,295.040009 
	C201.389557,295.868591 192.062439,292.150177 183.836777,284.278320 
	C176.156372,276.928192 175.902573,277.223206 182.998260,269.413849 
	C188.040222,263.864746 193.008469,258.248596 198.061691,252.709900 
	C200.177277,250.391022 201.610947,247.845901 198.819626,245.365921 
	C195.944397,242.811447 193.662796,244.862503 191.640152,247.121552 
	C184.638245,254.941879 177.599640,262.729370 170.599701,270.551453 
	C165.181534,276.605988 160.714996,277.543701 153.110596,274.205139 
	C150.937164,273.250946 149.078522,271.865875 147.413361,270.221771 
	C141.959030,264.836426 136.506516,259.448547 131.110779,254.004684 
	C126.256790,249.107376 123.731285,243.231186 124.939827,236.318970 
	C126.881332,225.214615 129.140610,214.165802 131.396225,202.412949 
	C135.245956,205.022003 137.296707,208.425888 139.844589,211.310135 
	C144.032410,216.050842 147.268585,222.759460 152.498489,225.140533 
	C157.905243,227.602158 165.210022,225.972977 171.684982,225.994507 
	C186.681732,226.044373 201.681183,226.160187 216.674057,225.914322 
	C220.876114,225.845413 222.845367,226.630203 222.274796,231.299332 
	C221.853531,234.746552 222.095367,238.291504 222.224762,241.786133 
	C222.567352,251.039185 227.701218,256.112335 236.992767,256.502869 
	C237.991013,256.544830 239.014496,256.659088 239.988083,256.502472 
	C244.854126,255.719681 247.746933,257.050262 248.052567,262.632141 
	C248.230453,265.880646 250.779816,268.228210 253.060730,270.470428 
	C262.804718,280.048981 272.536804,289.639679 282.525879,299.472900 
z"/>
<path fill="#28191E" opacity="1.000000" stroke="none" 
	d="
M157.707764,174.695221 
	C164.347137,169.103149 170.889984,163.928909 177.014374,158.299423 
	C179.898987,155.647934 181.386963,156.300034 183.777481,158.800873 
	C193.099030,168.552658 202.627029,178.107452 212.106277,187.707870 
	C214.298294,189.927902 216.697464,193.153610 219.968506,189.912048 
	C223.338257,186.572708 220.305145,183.928070 217.936203,181.520615 
	C208.590240,172.022583 199.307449,162.460709 189.844727,153.080399 
	C187.520035,150.775955 187.546844,149.609482 190.009796,147.284622 
	C197.861633,139.873062 206.834290,136.407364 217.694809,137.229706 
	C225.823364,137.845154 234.004837,137.856842 242.164352,137.915436 
	C244.947769,137.935440 245.911346,138.784424 245.892609,141.634796 
	C245.783081,158.290726 245.801895,174.947876 245.875916,191.604202 
	C245.886993,194.094711 245.218155,195.383362 242.516205,195.165359 
	C240.861679,195.031860 239.186279,195.118469 237.521454,195.157501 
	C227.784912,195.385727 222.453110,200.697922 222.204025,210.398529 
	C222.022491,217.467957 222.022491,217.472107 214.844025,217.472717 
	C196.688278,217.474304 178.532257,217.422562 160.377060,217.521118 
	C157.472046,217.536865 155.435013,216.756577 153.558304,214.405075 
	C148.781937,208.420349 143.901474,202.492386 138.677200,196.901932 
	C135.840561,193.866470 136.574890,192.250336 139.424515,189.984375 
	C145.548553,185.114685 151.448196,179.962784 157.707764,174.695221 
z"/>
<path fill="#28191F" opacity="1.000000" stroke="none" 
	d="
M254.096771,153.008072 
	C254.098557,148.844376 254.123291,145.178757 254.092377,141.513611 
	C254.077148,139.710220 254.188431,138.065292 256.642120,138.250977 
	C269.048431,139.189987 281.662048,137.274109 293.869568,140.947556 
	C299.334473,142.592026 299.361725,142.617462 295.843292,147.108337 
	C288.858154,156.024017 281.830505,164.906372 274.840942,173.818604 
	C273.622589,175.372131 272.032227,176.854218 272.361450,179.064087 
	C272.626801,180.845276 273.860535,181.985306 275.585999,182.537262 
	C277.996643,183.308395 279.315369,181.748428 280.575073,180.146332 
	C288.399445,170.195389 296.340942,160.332047 303.944794,150.215042 
	C306.140167,147.294113 307.700317,147.040054 310.750366,148.898285 
	C318.989166,153.917755 327.451843,158.569733 335.824799,163.369080 
	C339.291168,165.356003 339.777039,167.204941 336.684387,170.477539 
	C323.526520,184.400879 310.657898,198.597534 297.680786,212.691696 
	C295.979492,214.539444 294.155579,216.203949 291.750977,217.147827 
	C285.623047,219.553192 283.769775,218.366577 283.670715,211.895157 
	C283.492462,200.246292 278.407745,195.205215 266.781403,195.150787 
	C254.097321,195.091400 254.096664,195.091400 254.095779,182.496490 
	C254.095093,172.833115 254.096359,163.169724 254.096771,153.008072 
z"/>
<path fill="#28191E" opacity="1.000000" stroke="none" 
	d="
M275.120148,213.189301 
	C275.119537,222.659302 275.157898,231.651917 275.104492,240.644012 
	C275.069458,246.539383 273.601440,247.963898 267.674713,247.980774 
	C257.683258,248.009216 247.691513,248.018936 237.700150,247.975861 
	C232.355057,247.952820 230.857620,246.524109 230.816116,241.157150 
	C230.736282,230.833176 230.845291,220.507782 230.771103,210.183716 
	C230.739120,205.731018 232.930283,203.838364 237.206848,203.849213 
	C246.865295,203.873718 256.523834,203.848221 266.182343,203.854645 
	C274.131805,203.859940 275.038940,204.766434 275.120148,213.189301 
z"/>
<path fill="#8F73D0" opacity="1.000000" stroke="none" 
	d="
M240.795425,235.815430 
	C239.327118,229.372696 240.111847,223.234131 240.094574,217.130325 
	C240.085861,214.049545 242.223114,212.192612 245.206421,212.073349 
	C250.503952,211.861618 255.818756,211.903198 261.120789,212.045166 
	C264.699097,212.141006 266.545166,214.351517 266.629608,217.820328 
	C266.750610,222.791412 266.766724,227.770599 266.623474,232.740433 
	C266.540405,235.621841 265.292877,238.189743 262.085327,238.334686 
	C256.295929,238.596252 250.486526,238.461807 244.686295,238.406952 
	C243.111145,238.392044 241.862259,237.539780 240.795425,235.815430 
z"/>
</svg>